<?xml version="1.0" encoding="UTF-8"?>
<svg id="Layer_2" data-name="Layer 2" xmlns="http://www.w3.org/2000/svg" viewBox="0 0 831.31 831.31">
  <defs>
    <style>
      .cls-1 {
        fill: #e0aaff;
      }
    </style>
  </defs>
  <g id="Objects">
    <g>
      <path class="cls-1" d="M415.65,21.49c53.22,0,104.84,10.42,153.42,30.97,46.93,19.85,89.09,48.27,125.3,84.48,36.21,36.21,64.63,78.36,84.48,125.3,20.55,48.58,30.97,100.2,30.97,153.42s-10.42,104.84-30.97,153.42c-19.85,46.93-48.27,89.09-84.48,125.3-36.21,36.21-78.36,64.63-125.3,84.48-48.58,20.55-100.2,30.97-153.42,30.97s-104.84-10.42-153.42-30.97c-46.93-19.85-89.09-48.27-125.3-84.48-36.21-36.21-64.63-78.36-84.48-125.3-20.55-48.58-30.97-100.2-30.97-153.42s10.42-104.84,30.97-153.42c19.85-46.93,48.27-89.09,84.48-125.3,36.21-36.21,78.36-64.63,125.3-84.48,48.58-20.55,100.2-30.97,153.42-30.97M415.65,0C186.09,0,0,186.1,0,415.65s186.09,415.65,415.65,415.65,415.65-186.1,415.65-415.65S645.21,0,415.65,0h0Z"/>
      <path class="cls-1" d="M415.58,389.98c-64.26,0-116.54-52.28-116.54-116.54s52.28-116.54,116.54-116.54,116.54,52.28,116.54,116.54-52.28,116.54-116.54,116.54ZM415.58,178.39c-52.41,0-95.05,42.64-95.05,95.05s42.64,95.05,95.05,95.05,95.05-42.64,95.05-95.05-42.64-95.05-95.05-95.05Z"/>
      <path class="cls-1" d="M415.58,668.63c-46.29,0-86.47-8.92-119.44-26.5-42.6-22.72-60.92-73.71-42.61-118.62,12.97-31.82,34.86-58.94,63.31-78.43,29.14-19.96,63.29-30.51,98.74-30.51s70.06,10.69,99.34,30.92c28.59,19.75,50.46,47.2,63.26,79.37h0c17.53,44.07-.61,94.26-42.19,116.75-33.14,17.93-73.65,27.02-120.41,27.02ZM415.58,436.06c-31.1,0-61.05,9.25-86.6,26.75-24.96,17.1-44.18,40.89-55.55,68.81-14.13,34.67-.02,74.03,32.82,91.55,29.82,15.91,66.61,23.97,109.33,23.97s80.21-8.22,110.18-24.43c32-17.31,45.95-55.96,32.45-89.9h0c-11.23-28.22-30.42-52.3-55.51-69.63-25.67-17.74-55.79-27.11-87.12-27.11Z"/>
    </g>
  </g>
</svg>